<svg id="LOGO" xmlns="http://www.w3.org/2000/svg" viewBox="0 0 64.72879 18.40128"><title>EuroLeague Basketball</title><path d="M18.05765,8.58949q-.50095-.061-.95075-.13135a20.271,20.271,0,0,1-4.09617-1.17037c-1.79652-.72941-5.50435-2.62414-5.53679-4.51189,0,0-.276-2.24984,3.68766-1.02217a7.34,7.34,0,0,0,6.1078,4.51857c.29061.03291.57514.00563.60519-.14515A9.20179,9.20179,0,0,0,2.75922,2.63158q-.06182.06706-.12141.13353a2.95581,2.95581,0,0,0-.82711,1.7826c-.00426.98475,1.14213,1.85214,2.54266,2.544l.008.00007A30.76,30.76,0,0,0,9.69415,9.12021v.00047c.1269.02254.13531.05.13505.08509-.00038.0514-.03631.05354-.093.07216A31.84019,31.84019,0,0,0,4.35142,11.286c-.00235.00114-2.55666,1.12673-2.55968,2.53574a2.94359,2.94359,0,0,0,.81894,1.78614c.03956.04486.07959.08954.1206.134a9.2016,9.2016,0,0,0,15.13008-3.4305c-.0294-.15074-.31384-.17906-.60458-.14776a7.34038,7.34038,0,0,0-6.1272,4.49263c-3.96886,1.21061-3.68324-1.038-3.68324-1.038-.00572-1.6071,3.07546-3.66523,5.56014-4.69666a21.30749,21.30749,0,0,1,5.14691-1.24692c.17458-.0139.2358-.16338.24353-.3092a2.1875,2.1875,0,0,0-.0214-.539A.31906.31906,0,0,0,18.05765,8.58949Z"/><path d="M5.31645,9.26845c-.00255,0,.09732-.02059.09745-.07216s-.12029-.08552-.12029-.08506V9.11076C4.7073,8.9031,3.869,8.564,3.15874,8.22229,1.87555,7.55243.86453,6.73116.86652,5.80592c.00017-.0813-.07834-.09359-.11726-.09367-.06753-.00015-.1085.10805-.1085.10805A9.2382,9.2382,0,0,0,.62631,12.5445s.04051.108.108.10814c.03892.00007.11749-.01187.11767-.09316.002-.93749,1.044-1.76425,2.35476-2.43331A14.34821,14.34821,0,0,1,5.31645,9.26845Z"/><path d="M36.70317,8.23453a2.5345,2.5345,0,0,0,.93688-.17,2.15261,2.15261,0,0,0,1.227-1.20216,2.36244,2.36244,0,0,0,.17409-.91613,2.39362,2.39362,0,0,0-.17409-.92027,2.14335,2.14335,0,0,0-1.227-1.20631,2.5345,2.5345,0,0,0-.93688-.17,2.50084,2.50084,0,0,0-.93271.17A2.15222,2.15222,0,0,0,34.54758,5.026a2.39363,2.39363,0,0,0-.1741.92027,2.36244,2.36244,0,0,0,.1741.91613,2.16159,2.16159,0,0,0,1.22288,1.20216A2.50083,2.50083,0,0,0,36.70317,8.23453Zm-.87051-3.3163a1.21183,1.21183,0,0,1,1.74934,0,1.54508,1.54508,0,0,1,.315,1.02806A1.53138,1.53138,0,0,1,37.582,6.966a1.21183,1.21183,0,0,1-1.74934,0,1.53045,1.53045,0,0,1-.315-1.01976A1.54415,1.54415,0,0,1,35.83266,4.91822Z"/><path d="M54.49384,9.51131a2.48687,2.48687,0,0,0,.626-1.84055V3.89017q-.15766-.033-.37309-.07047-.2157-.03731-.46428-.06632-.24874-.0289-.50576-.0456-.25713-.01644-.48914-.01658a3.16438,3.16438,0,0,0-1.05294.16581,2.31356,2.31356,0,0,0-.80421.46843,2.02922,2.02922,0,0,0-.50986.73373,2.49393,2.49393,0,0,0-.17825.96173,2.73126,2.73126,0,0,0,.14092.90784,1.91822,1.91822,0,0,0,.398.67984,1.71485,1.71485,0,0,0,.626.427,2.1585,2.1585,0,0,0,.81664.14924,1.646,1.646,0,0,0,.74618-.16582,1.27083,1.27083,0,0,0,.5223-.47257v.29018a1.43584,1.43584,0,0,1-.33993,1.05292,1.43548,1.43548,0,0,1-1.05291.33993,2.1436,2.1436,0,0,1-1.31825-.37308.62777.62777,0,0,0-.24043.50574.46452.46452,0,0,0,.12438.315,1.049,1.049,0,0,0,.34405.24458,2.083,2.083,0,0,0,.52231.15752,3.713,3.713,0,0,0,.65084.0539A2.46307,2.46307,0,0,0,54.49384,9.51131Zm-.78348-2.61573a1.03605,1.03605,0,0,1-.84566.36064.93425.93425,0,0,1-.75446-.30261,1.418,1.418,0,0,1-.257-.93271,1.60723,1.60723,0,0,1,.34823-1.11925,1.32282,1.32282,0,0,1,1.028-.38138,3.80723,3.80723,0,0,1,.77935.0912V5.88824A1.53653,1.53653,0,0,1,53.71035,6.89558Z"/><path d="M32.4666,4.73582a1.40973,1.40973,0,0,1,.3565-.10363,2.72389,2.72389,0,0,1,.46428-.03731,1.8595,1.8595,0,0,1,.23629.01658q.12837.01671.24873.04146a1.37791,1.37791,0,0,1,.20726.058.359.359,0,0,1,.12023.06633.803.803,0,0,0,.17825-.25287.75487.75487,0,0,0,.05389-.29432q0-.58023-1.16072-.58036a3.21041,3.21041,0,0,0-.50158.04146,5.09519,5.09519,0,0,0-.50989.10778,3.01242,3.01242,0,0,0-.46013.16167,2.07544,2.07544,0,0,0-.36067.20312V8.09359H32.4666Z"/><path d="M25.21217,7.06553H23.1975V5.71414h2.45408a.56973.56973,0,0,0,.0995-.22385,1.17651,1.17651,0,0,0,.04145-.29847q0-.50562-.55547-.50574H23.1975V3.3181h1.97322a.90509.90509,0,0,0,.70471-.24043A1.16748,1.16748,0,0,0,26.091,2.29H22.69177q-.67153,0-.67154.77933V7.31425q0,.77934.67154.77933h3.44068a1.16758,1.16758,0,0,0-.21557-.78763A.90572.90572,0,0,0,25.21217,7.06553Z"/><path d="M29.996,3.79068a.50563.50563,0,0,0-.57206.57206V7.25622a2.71405,2.71405,0,0,1-.597.04146q-1.22715,0-1.227-1.05293V3.9482a.74347.74347,0,0,0-.24871-.11607,1.14125,1.14125,0,0,0-.30676-.04145.50564.50564,0,0,0-.57207.57206V6.29449a1.7916,1.7916,0,0,0,.58449,1.43845,2.82748,2.82748,0,0,0,1.86129.50159,7.19621,7.19621,0,0,0,.883-.05389,4.90466,4.90466,0,0,0,.75032-.14509V3.9482a.74342.74342,0,0,0-.24874-.11607A1.14094,1.14094,0,0,0,29.996,3.79068Z"/><path d="M48.7732,8.21795q.26931-.0167.53062-.04559.26113-.02915.4767-.06219a1.88346,1.88346,0,0,0,.33163-.07462V5.54832A1.69929,1.69929,0,0,0,49.55253,4.143,2.77665,2.77665,0,0,0,47.799,3.69119a2.92121,2.92121,0,0,0-.51817.04559,2.09957,2.09957,0,0,0-.44771.12851.94757.94757,0,0,0-.315.20726.395.395,0,0,0-.12023.2819.678.678,0,0,0,.07464.30675.60187.60187,0,0,0,.21555.24044,1.92624,1.92624,0,0,1,.60523-.29018,2.41991,2.41991,0,0,1,.57207-.06632q1.12739,0,1.12754.79591V5.482q-.06645-.00815-.17825-.01658-.11194-.00817-.23629-.01658-.12437-.00817-.257-.01244-.13277-.004-.24043-.00414a2.72458,2.72458,0,0,0-1.54208.33578,1.17179,1.17179,0,0,0-.47256,1.02391,1.1464,1.1464,0,0,0,.15752.59693,1.38064,1.38064,0,0,0,.44356.45185,2.29527,2.29527,0,0,0,.69642.29017,3.74442,3.74442,0,0,0,.91612.10363Q48.50374,8.23453,48.7732,8.21795Zm-.95344-.854a1.17415,1.17415,0,0,1-.315-.10778.64663.64663,0,0,1-.23629-.20312.53666.53666,0,0,1-.09119-.31919.46269.46269,0,0,1,.23214-.44771,1.69082,1.69082,0,0,1,.75447-.12436q.22383,0,.44769.01659t.37308.04145V7.32255a2.27983,2.27983,0,0,1-.36893.05389q-.24473.02085-.47672.02073A1.66335,1.66335,0,0,1,47.81976,7.364Z"/><path d="M59.32321,3.79068a.50564.50564,0,0,0-.57207.57206V7.25622a2.71369,2.71369,0,0,1-.59692.04146q-1.22706,0-1.227-1.05293V3.9482a.74338.74338,0,0,0-.24873-.11607,1.141,1.141,0,0,0-.30676-.04145.50563.50563,0,0,0-.57206.57206V6.29449a1.7916,1.7916,0,0,0,.58451,1.43845,2.82743,2.82743,0,0,0,1.86128.50159,7.19628,7.19628,0,0,0,.883-.05389,4.90585,4.90585,0,0,0,.75032-.14509V3.9482A.74336.74336,0,0,0,59.63,3.83213,1.14111,1.14111,0,0,0,59.32321,3.79068Z"/><path d="M64.40959,6.10795a.96946.96946,0,0,0,.3192-.80835,1.56292,1.56292,0,0,0-.14095-.66741,1.51031,1.51031,0,0,0-.4021-.52232,1.87812,1.87812,0,0,0-.62181-.33993,2.52211,2.52211,0,0,0-.80005-.12022,2.46,2.46,0,0,0-.93272.17,2.07715,2.07715,0,0,0-.71714.47672,2.1432,2.1432,0,0,0-.46428.742,2.66748,2.66748,0,0,0-.16583.95758,2.48177,2.48177,0,0,0,.17.941,1.90116,1.90116,0,0,0,.485.70471,2.14264,2.14264,0,0,0,.7752.43942,3.28378,3.28378,0,0,0,1.0405.15338A2.58258,2.58258,0,0,0,64.02822,8.048q.402-.18654.40211-.5016a.60475.60475,0,0,0-.0539-.257.87084.87084,0,0,0-.17825-.24044,1.62962,1.62962,0,0,1-.50989.21971,2.43917,2.43917,0,0,1-.61765.07877,1.7062,1.7062,0,0,1-.999-.26945.97435.97435,0,0,1-.43526-.71715H63.3774A1.66988,1.66988,0,0,0,64.40959,6.10795Zm-2.80643-.5016a1.36852,1.36852,0,0,1,.10778-.45184,1.22309,1.22309,0,0,1,.24873-.37308,1.15214,1.15214,0,0,1,.36478-.25287,1.121,1.121,0,0,1,.456-.0912.94468.94468,0,0,1,.64669.21141.709.709,0,0,1,.24043.55963.41847.41847,0,0,1-.0912.31919.62772.62772,0,0,1-.38138.07876Z"/><path d="M42.18619,7.64174a2.14253,2.14253,0,0,0,.77517.43942,3.284,3.284,0,0,0,1.0405.15338A2.5825,2.5825,0,0,0,45.07551,8.048q.402-.18654.40212-.5016a.60475.60475,0,0,0-.05389-.257.87084.87084,0,0,0-.17825-.24044,1.63072,1.63072,0,0,1-.50989.21971,2.43889,2.43889,0,0,1-.61767.07877A1.71053,1.71053,0,0,1,43.123,7.078a.97079.97079,0,0,1-.43941-.71715h1.74106a1.66967,1.66967,0,0,0,1.03219-.25287.9694.9694,0,0,0,.3192-.80835,1.56134,1.56134,0,0,0-.141-.66741,1.51046,1.51046,0,0,0-.40208-.52232,1.8782,1.8782,0,0,0-.62182-.33993,2.52207,2.52207,0,0,0-.80005-.12022,2.46,2.46,0,0,0-.93271.17,2.07711,2.07711,0,0,0-.71715.47672,2.14211,2.14211,0,0,0-.46428.742,2.66748,2.66748,0,0,0-.1658.95758,2.48018,2.48018,0,0,0,.17.941A1.901,1.901,0,0,0,42.18619,7.64174Zm.5762-2.49966a1.21634,1.21634,0,0,1,.25287-.37308,1.12871,1.12871,0,0,1,.3648-.24458,1.14363,1.14363,0,0,1,.44771-.08705.94465.94465,0,0,1,.64666.21141.70876.70876,0,0,1,.24045.55963.41884.41884,0,0,1-.09121.31919.62793.62793,0,0,1-.38138.07876H42.65047A1.35881,1.35881,0,0,1,42.76239,5.14207Z"/><path d="M40.8154,2.44756a.79639.79639,0,0,0-.257-.12019,1.16043,1.16043,0,0,0-.32333-.04562.52763.52763,0,0,0-.59693.59694V8.09357H40.8154Z"/><path d="M25.835,13.65554a1.48357,1.48357,0,0,0-.3426-.3468,1.58584,1.58584,0,0,0-.49478-.23669,1.10755,1.10755,0,0,0,.27907-.16081,1.24327,1.24327,0,0,0,.258-.27059,1.53318,1.53318,0,0,0,.16492-1.41257,1.18131,1.18131,0,0,0-.32565-.461,1.70968,1.70968,0,0,0-.5709-.32145,2.52441,2.52441,0,0,0-.83739-.12271H22.38391a.367.367,0,0,0-.27068.093.33158.33158,0,0,0-.093.24542v5.46411H24.1771a2.48959,2.48959,0,0,0,.94314-.15226,1.60423,1.60423,0,0,0,.58366-.3891,1.33921,1.33921,0,0,0,.30022-.516,1.83857,1.83857,0,0,0,.08461-.5328,1.80247,1.80247,0,0,0-.05917-.461A1.32406,1.32406,0,0,0,25.835,13.65554ZM22.59541,10.822h1.26871q1.31953,0,1.31957.98116a1.0786,1.0786,0,0,1-.28335.77821,1.29131,1.29131,0,0,1-.96009.29611H22.59541Zm2.53331,4.52105a1.533,1.533,0,0,1-1.01079.28335H22.59541V13.37655h1.54786a1.78282,1.78282,0,0,1,.59633.0888,1.14422,1.14422,0,0,1,.41026.24106.926.926,0,0,1,.23677.36359,1.33982,1.33982,0,0,1,.07612.45676A1.01088,1.01088,0,0,1,25.12872,15.34307Z"/><path d="M29.88864,12.243a2.43306,2.43306,0,0,0-1.53494-.41445,2.47388,2.47388,0,0,0-.7485.08628,1.21234,1.21234,0,0,0-.34.15493.51127.51127,0,0,0-.11423.12053.28379.28379,0,0,0-.0465.16282.33846.33846,0,0,0,.0465.17323.3808.3808,0,0,0,.10575.12271,1.51006,1.51006,0,0,1,.38181-.2241,1.85278,1.85278,0,0,1,.74691-.12271,1.625,1.625,0,0,1,1.12426.31927,1.18829,1.18829,0,0,1,.34379.91586v.01678q-.16077-.0083-.52021-.02971-.35957-.0209-.74011-.02115a3.38353,3.38353,0,0,0-.91771.10575,1.49573,1.49573,0,0,0-.58366.29611,1.04951,1.04951,0,0,0-.3045.444,1.62687,1.62687,0,0,0-.0888.54135,1.955,1.955,0,0,0,.05934.46952.89607.89607,0,0,0,.26271.4356,1.53963,1.53963,0,0,0,.5892.32146,3.42841,3.42841,0,0,0,1.03865.12673,10.34578,10.34578,0,0,0,1.102-.0465q.41547-.04657.6613-.0888v-2.529A1.60383,1.60383,0,0,0,29.88864,12.243Zm-.03517,3.4427a2.35438,2.35438,0,0,1-.37341.076,5.922,5.922,0,0,1-.82312.0423,1.91266,1.91266,0,0,1-1.0948-.22829.801.801,0,0,1-.30543-.68522.75479.75479,0,0,1,.37333-.72735A2.12314,2.12314,0,0,1,28.63991,13.96q.178,0,.37761.00857.19943.00856.36913.02115t.29712.02534c.08485.00839.14142.01562.16971.02116Z"/><path d="M34.48113,14.22662a1.51552,1.51552,0,0,0-.45676-.25381,3.75987,3.75987,0,0,0-.69781-.1734l-.72743-.11a1.69194,1.69194,0,0,1-.65551-.2199.50134.50134,0,0,1-.23265-.44836.61078.61078,0,0,1,.28335-.55815,1.686,1.686,0,0,1,.87549-.17776,2.51931,2.51931,0,0,1,1.07843.22007,1.34045,1.34045,0,0,1,.27487.16064q.093.076.11843.10156a.60357.60357,0,0,0,.1311-.11431.27666.27666,0,0,0,.06346-.19019.38416.38416,0,0,0-.23685-.32145,3.03288,3.03288,0,0,0-.52441-.20731,3.09811,3.09811,0,0,0-.89655-.10575,2.8105,2.8105,0,0,0-.83319.10558,1.48427,1.48427,0,0,0-.53288.27849.96139.96139,0,0,0-.27915.38843,1.25521,1.25521,0,0,0-.08032.443.92669.92669,0,0,0,.35948.77653,2.23159,2.23159,0,0,0,1.04462.37971l.609.09283a3.86978,3.86978,0,0,1,.51593.114,1.0637,1.0637,0,0,1,.32565.15628.52035.52035,0,0,1,.1734.2152.70866.70866,0,0,1,.05078.27429.58153.58153,0,0,1-.093.33757.69378.69378,0,0,1-.2538.21957,1.29155,1.29155,0,0,1-.38483.12237,2.85889,2.85889,0,0,1-.47791.03794,3.184,3.184,0,0,1-.64711-.05926,3.53555,3.53555,0,0,1-.49058-.1353,2.30811,2.30811,0,0,1-.33413-.14806q-.12677-.07176-.16912-.09736a1.88675,1.88675,0,0,0-.12189.2177.31617.31617,0,0,0,.13253.34951,2.6044,2.6044,0,0,0,.315.12673,4.91675,4.91675,0,0,0,.57518.15075,3.77408,3.77408,0,0,0,.757.06882,3.01185,3.01185,0,0,0,.79936-.093,1.55759,1.55759,0,0,0,.54975-.2622,1.03054,1.03054,0,0,0,.31726-.4017,1.26633,1.26633,0,0,0,.10147-.51182,1.08452,1.08452,0,0,0-.07613-.41445A.87763.87763,0,0,0,34.48113,14.22662Z"/><path d="M36.76062,13.79941q.04218-.02544.21571-.14806.17324-.12238.41445-.29595.241-.17348.51593-.37232.27483-.19841.516-.37215.241-.17324.41445-.30014a2.587,2.587,0,0,0,.20723-.16081,1.16509,1.16509,0,0,0-.10576-.11415.32547.32547,0,0,0-.241-.0888.62349.62349,0,0,0-.30031.08041,3.4363,3.4363,0,0,0-.368.24106q-.32154.22837-.647.46514-.32571.23695-.60053.43561-.275.19891-.45675.334-.18206.13546-.21571.15225V10.61907a.71767.71767,0,0,0-.10576-.0381.52819.52819,0,0,0-.14806-.02116.26657.26657,0,0,0-.3045.28772v5.278h.55832V14.00235q.34672.22838.69361.49906.34672.27093.664.55412.31713.28352.58786.55814a5.16453,5.16453,0,0,1,.44828.51182h.71048a9.545,9.545,0,0,0-.97269-1.10807A10.89089,10.89089,0,0,0,36.76062,13.79941Z"/><path d="M41.64577,11.82853a2.16955,2.16955,0,0,0-.8561.16921,2.02545,2.02545,0,0,0-.6869.47371,2.22688,2.22688,0,0,0-.45356.72735,2.53819,2.53819,0,0,0-.16509.93046,2.336,2.336,0,0,0,.16677.91771,1.91026,1.91026,0,0,0,.45256.65986,1.88032,1.88032,0,0,0,.67481.4017,2.53265,2.53265,0,0,0,.8373.1353,2.92709,2.92709,0,0,0,.53716-.0465,3.72993,3.72993,0,0,0,.44819-.10995q.07542-.024.14229-.04931a.3741.3741,0,0,0,.14868-.59915,2.86527,2.86527,0,0,1-.45581.19171,2.26483,2.26483,0,0,1-.74431.11414,1.6911,1.6911,0,0,1-1.10789-.334,1.53107,1.53107,0,0,1-.49083-1.053H42.38a1.04887,1.04887,0,0,0,.78661-.25381.9751.9751,0,0,0,.24239-.702,1.49091,1.49091,0,0,0-.4539-1.15892A1.87537,1.87537,0,0,0,41.64577,11.82853Zm1.02228,1.97088a1.01756,1.01756,0,0,1-.52172.10995h-2.0617a1.86693,1.86693,0,0,1,.11449-.58786,1.67844,1.67844,0,0,1,.30114-.52021,1.53329,1.53329,0,0,1,.47942-.37215,1.45864,1.45864,0,0,1,.66608-.14386,1.59442,1.59442,0,0,1,.56435.0888,1.01806,1.01806,0,0,1,.37332.23265.86664.86664,0,0,1,.20345.33422,1.2342,1.2342,0,0,1,.06379.3933A.502.502,0,0,1,42.66805,13.79941Z"/><path d="M46.46226,15.66872a1.05629,1.05629,0,0,1-.49066.10156.79531.79531,0,0,1-.55832-.18616.85726.85726,0,0,1-.20295-.65131V12.43753h1.47183a.75763.75763,0,0,0,.04649-.0888.37.37,0,0,0,.02955-.15645.21431.21431,0,0,0-.08041-.19036A.34424.34424,0,0,0,46.479,11.947H45.21033v-1.328a.70181.70181,0,0,0-.10575-.0381.52784.52784,0,0,0-.14806-.02116.26665.26665,0,0,0-.3045.28755V11.947h-.719a.74581.74581,0,0,0-.0465.0888.36808.36808,0,0,0-.02954.15645.21383.21383,0,0,0,.08023.19036.34312.34312,0,0,0,.19892.05489H44.652v2.61379a1.48477,1.48477,0,0,0,.072.46515.98651.98651,0,0,0,.60044.63436,1.49175,1.49175,0,0,0,.55412.093,2.01518,2.01518,0,0,0,.41026-.03793,1.735,1.735,0,0,0,.26229-.075.36935.36935,0,0,0,.14795-.59071Q46.625,15.58381,46.46226,15.66872Z"/><path d="M51.39777,12.41219a1.77322,1.77322,0,0,0-.6174-.43141,2.03335,2.03335,0,0,0-.79936-.15225,2.068,2.068,0,0,0-.67666.09736,1.80078,1.80078,0,0,0-.461.2283,1.21179,1.21179,0,0,0-.27915.26656q-.09745.13521-.14806.21134V9.95081a.72015.72015,0,0,0-.10576-.03811.52775.52775,0,0,0-.14806-.02115.26667.26667,0,0,0-.3045.28771v5.94622q.03374.0083.43141.06345a8.67909,8.67909,0,0,0,1.11646.05489,3.39157,3.39157,0,0,0,1.12921-.169,2.15779,2.15779,0,0,0,.78678-.46531,1.85839,1.85839,0,0,0,.461-.7104,2.60852,2.60852,0,0,0,.15225-.90512,2.72942,2.72942,0,0,0-.13966-.90075A1.91429,1.91429,0,0,0,51.39777,12.41219Zm-.17341,2.31768a1.41593,1.41593,0,0,1-.34261.56251,1.59457,1.59457,0,0,1-.59205.36359,2.50532,2.50532,0,0,1-.85845.13111,4.30887,4.30887,0,0,1-.698-.04231q-.241-.042-.31709-.05908V13.994a2.24453,2.24453,0,0,1,.093-.6597,1.54277,1.54277,0,0,1,.275-.52877,1.26609,1.26609,0,0,1,.45256-.351,1.4797,1.4797,0,0,1,.63435-.12691,1.34983,1.34983,0,0,1,1.10387.4356,1.88482,1.88482,0,0,1,.3594,1.23077A2.32177,2.32177,0,0,1,51.22436,14.72987Z"/><path d="M55.68566,12.243a2.4332,2.4332,0,0,0-1.53494-.41445,2.47355,2.47355,0,0,0-.7485.08628,1.21316,1.21316,0,0,0-.34009.15493.51108.51108,0,0,0-.11415.12053.28385.28385,0,0,0-.04649.16282.33853.33853,0,0,0,.04649.17323.38081.38081,0,0,0,.10576.12271,1.5092,1.5092,0,0,1,.38189-.2241,1.852,1.852,0,0,1,.74683-.12271,1.6257,1.6257,0,0,1,1.12434.31927,1.1885,1.1885,0,0,1,.34362.91586v.01678q-.16065-.0083-.52-.02971-.35982-.0209-.74028-.02115a3.38434,3.38434,0,0,0-.9177.10575,1.49689,1.49689,0,0,0-.58366.29611,1.05091,1.05091,0,0,0-.3045.444,1.63108,1.63108,0,0,0-.0888.54135,1.95936,1.95936,0,0,0,.05942.46952.8947.8947,0,0,0,.26271.4356,1.53953,1.53953,0,0,0,.58919.32146,3.42869,3.42869,0,0,0,1.03874.12673,10.34257,10.34257,0,0,0,1.10186-.0465q.4157-.04657.66138-.0888v-2.529A1.60381,1.60381,0,0,0,55.68566,12.243Zm-.03525,3.4427a2.34817,2.34817,0,0,1-.37332.076,5.92069,5.92069,0,0,1-.823.0423,1.91253,1.91253,0,0,1-1.09481-.22829.80061.80061,0,0,1-.30551-.68522.75477.75477,0,0,1,.37333-.72735A2.12336,2.12336,0,0,1,54.43693,13.96q.178,0,.37769.00857.19943.00856.36913.02115t.297.02534c.08494.00839.14151.01562.16971.02116Z"/><path d="M57.393,10.55919a.26646.26646,0,0,0-.3045.28772v5.27857h.55831v-5.507a.72076.72076,0,0,0-.10576-.03811A.5286.5286,0,0,0,57.393,10.55919Z"/><path d="M59.06592,10.55919a.26646.26646,0,0,0-.3045.28772v5.27857h.55831v-5.507a.72076.72076,0,0,0-.10576-.03811A.5286.5286,0,0,0,59.06592,10.55919Z"/></svg>